<svg xmlns="http://www.w3.org/2000/svg" xmlns:xlink="http://www.w3.org/1999/xlink" width="500" zoomAndPan="magnify" viewBox="0 0 375 374.999991" height="500" preserveAspectRatio="xMidYMid meet" version="1.0"><defs><g/><clipPath id="599c6f844e"><path d="M 120 165 L 171.167969 165 L 171.167969 189 L 120 189 Z M 120 165 " clip-rule="nonzero"/></clipPath><clipPath id="8cf0eb32ae"><path d="M 59 155.527344 L 102 155.527344 L 102 198 L 59 198 Z M 59 155.527344 " clip-rule="nonzero"/></clipPath></defs><rect x="-37.5" width="450" fill="#ffffff" y="-37.499999" height="449.999989" fill-opacity="1"/><rect x="-37.5" width="450" fill="#050a30" y="-37.499999" height="449.999989" fill-opacity="1"/><g clip-path="url(#599c6f844e)"><path fill="#e5f1f9" d="M 120.242188 165.121094 L 372.894531 165.121094 L 372.894531 188.515625 L 120.242188 188.515625 Z M 120.242188 165.121094 " fill-opacity="1" fill-rule="nonzero"/></g><g clip-path="url(#8cf0eb32ae)"><path fill="#e5f1f9" d="M 101.535156 176.820312 C 101.535156 165.289062 92.167969 155.9375 80.613281 155.9375 C 69.058594 155.9375 59.691406 165.289062 59.691406 176.820312 C 59.691406 188.351562 69.058594 197.707031 80.613281 197.707031 C 92.167969 197.707031 101.535156 188.351562 101.535156 176.820312 Z M 101.535156 176.820312 " fill-opacity="1" fill-rule="nonzero"/></g><g fill="#e5f1f9" fill-opacity="1"><g transform="translate(187.499992, 197.038155)"><g><path d="M 22.203125 -34.644531 L 1.535156 -34.644531 C 1.289062 -34.644531 1.089844 -34.449219 1.089844 -34.199219 L 1.089844 0.0507812 C 1.089844 0.296875 1.289062 0.496094 1.535156 0.496094 L 6.691406 0.496094 C 6.9375 0.496094 7.1875 0.296875 7.1875 0.0507812 L 7.1875 -14.027344 L 14.472656 -14.027344 C 14.722656 -14.027344 14.917969 -14.226562 14.917969 -14.523438 L 14.917969 -19.675781 C 14.917969 -19.925781 14.722656 -20.125 14.472656 -20.125 L 7.1875 -20.125 L 7.1875 -28.550781 L 22.203125 -28.550781 C 22.453125 -28.550781 22.699219 -28.796875 22.699219 -29.046875 L 22.699219 -34.199219 C 22.699219 -34.449219 22.453125 -34.644531 22.203125 -34.644531 Z M 21.757812 -29.492188 L 6.691406 -29.492188 C 6.445312 -29.492188 6.246094 -29.292969 6.246094 -29.046875 L 6.246094 -19.675781 C 6.246094 -19.429688 6.445312 -19.230469 6.691406 -19.230469 L 13.976562 -19.230469 L 13.976562 -14.96875 L 6.691406 -14.96875 C 6.445312 -14.96875 6.246094 -14.769531 6.246094 -14.523438 L 6.246094 -0.445312 L 1.984375 -0.445312 L 1.984375 -33.753906 L 21.757812 -33.753906 Z M 21.757812 -29.492188 "/></g></g></g><g fill="#e5f1f9" fill-opacity="1"><g transform="translate(211.390339, 197.038155)"><g><path d="M 11.894531 -34.695312 C 5.898438 -34.695312 1.089844 -29.886719 1.089844 -23.890625 L 1.089844 -10.359375 C 1.089844 -4.410156 5.898438 0.445312 11.894531 0.445312 C 17.84375 0.445312 22.699219 -4.410156 22.699219 -10.359375 L 22.699219 -23.890625 C 22.699219 -29.886719 17.84375 -34.695312 11.894531 -34.695312 Z M 21.757812 -10.359375 C 21.757812 -4.90625 17.296875 -0.496094 11.894531 -0.496094 C 6.445312 -0.496094 1.984375 -4.90625 1.984375 -10.359375 L 1.984375 -23.890625 C 1.984375 -29.34375 6.445312 -33.753906 11.894531 -33.753906 C 17.296875 -33.753906 21.757812 -29.34375 21.757812 -23.890625 Z M 11.894531 -29.492188 C 8.773438 -29.492188 6.246094 -26.964844 6.246094 -23.839844 L 6.246094 -10.308594 C 6.246094 -7.1875 8.773438 -4.660156 11.894531 -4.660156 C 14.96875 -4.660156 17.496094 -7.1875 17.496094 -10.308594 L 17.496094 -23.839844 C 17.496094 -26.964844 14.96875 -29.492188 11.894531 -29.492188 Z M 16.554688 -10.308594 C 16.554688 -7.730469 14.472656 -5.601562 11.894531 -5.601562 C 9.269531 -5.601562 7.1875 -7.730469 7.1875 -10.308594 L 7.1875 -23.839844 C 7.1875 -26.46875 9.269531 -28.550781 11.894531 -28.550781 C 14.472656 -28.550781 16.554688 -26.46875 16.554688 -23.839844 Z M 16.554688 -10.308594 "/></g></g></g><g fill="#e5f1f9" fill-opacity="1"><g transform="translate(235.231101, 197.038155)"><g><path d="M 22.203125 -10.804688 L 17.050781 -10.804688 C 16.800781 -10.804688 16.554688 -10.558594 16.554688 -10.308594 C 16.554688 -7.730469 14.472656 -5.601562 11.894531 -5.601562 C 9.269531 -5.601562 7.1875 -7.730469 7.1875 -10.308594 L 7.1875 -23.839844 C 7.1875 -26.46875 9.269531 -28.550781 11.894531 -28.550781 C 14.472656 -28.550781 16.554688 -26.46875 16.554688 -23.839844 C 16.554688 -23.742188 16.605469 -23.59375 16.703125 -23.542969 C 16.800781 -23.445312 16.902344 -23.394531 17.050781 -23.394531 L 22.203125 -23.445312 C 22.453125 -23.445312 22.699219 -23.640625 22.699219 -23.890625 C 22.699219 -29.886719 17.84375 -34.695312 11.894531 -34.695312 C 5.898438 -34.695312 1.089844 -29.886719 1.089844 -23.890625 L 1.089844 -10.359375 C 1.089844 -4.410156 5.898438 0.445312 11.894531 0.445312 C 17.84375 0.445312 22.699219 -4.410156 22.699219 -10.359375 C 22.699219 -10.457031 22.652344 -10.605469 22.550781 -10.707031 C 22.453125 -10.753906 22.355469 -10.804688 22.203125 -10.804688 Z M 11.894531 -0.496094 C 6.445312 -0.496094 1.984375 -4.90625 1.984375 -10.359375 L 1.984375 -23.890625 C 1.984375 -29.34375 6.445312 -33.753906 11.894531 -33.753906 C 17.148438 -33.753906 21.511719 -29.589844 21.757812 -24.386719 L 17.496094 -24.335938 C 17.25 -27.210938 14.820312 -29.492188 11.894531 -29.492188 C 8.773438 -29.492188 6.246094 -26.964844 6.246094 -23.839844 L 6.246094 -10.308594 C 6.246094 -7.1875 8.773438 -4.660156 11.894531 -4.660156 C 14.820312 -4.660156 17.25 -6.9375 17.496094 -9.863281 L 21.757812 -9.863281 C 21.511719 -4.660156 17.148438 -0.496094 11.894531 -0.496094 Z M 11.894531 -0.496094 "/></g></g></g><g fill="#e5f1f9" fill-opacity="1"><g transform="translate(259.071862, 197.038155)"><g><path d="M 22.652344 -0.0976562 L 14.96875 -34.300781 C 14.917969 -34.496094 14.722656 -34.644531 14.523438 -34.644531 L 9.21875 -34.644531 C 9.019531 -34.644531 8.824219 -34.496094 8.773438 -34.300781 L 1.089844 -0.0976562 C 1.039062 0.0507812 1.089844 0.199219 1.191406 0.296875 C 1.238281 0.445312 1.386719 0.496094 1.535156 0.496094 L 6.839844 0.496094 C 7.039062 0.496094 7.238281 0.347656 7.285156 0.148438 L 8.128906 -3.570312 L 15.613281 -3.570312 L 16.457031 0.148438 C 16.503906 0.347656 16.703125 0.496094 16.902344 0.496094 L 22.203125 0.496094 C 22.355469 0.496094 22.503906 0.445312 22.601562 0.296875 C 22.652344 0.199219 22.699219 0.0507812 22.652344 -0.0976562 Z M 17.296875 -0.445312 L 16.457031 -4.164062 C 16.40625 -4.363281 16.207031 -4.511719 16.007812 -4.511719 L 7.730469 -4.511719 C 7.535156 -4.511719 7.335938 -4.363281 7.285156 -4.164062 L 6.445312 -0.445312 L 2.132812 -0.445312 L 9.617188 -33.753906 L 14.125 -33.753906 L 21.609375 -0.445312 Z M 11.894531 -22.898438 C 11.648438 -22.898438 11.449219 -22.75 11.398438 -22.503906 L 8.476562 -9.316406 C 8.425781 -9.167969 8.476562 -9.019531 8.523438 -8.921875 C 8.625 -8.824219 8.773438 -8.722656 8.921875 -8.722656 L 14.820312 -8.722656 C 14.96875 -8.722656 15.117188 -8.824219 15.214844 -8.921875 C 15.316406 -9.019531 15.316406 -9.167969 15.316406 -9.316406 L 12.339844 -22.503906 C 12.292969 -22.75 12.09375 -22.898438 11.894531 -22.898438 Z M 9.515625 -9.664062 L 11.894531 -20.273438 L 14.273438 -9.664062 Z M 9.515625 -9.664062 "/></g></g></g><g fill="#e5f1f9" fill-opacity="1"><g transform="translate(282.912624, 197.038155)"><g><path d="M 22.203125 -5.601562 L 7.1875 -5.601562 L 7.1875 -34.199219 C 7.1875 -34.449219 6.9375 -34.644531 6.691406 -34.644531 L 1.535156 -34.644531 C 1.289062 -34.644531 1.089844 -34.449219 1.089844 -34.199219 L 1.089844 0.0507812 C 1.089844 0.296875 1.289062 0.496094 1.535156 0.496094 L 22.203125 0.496094 C 22.453125 0.496094 22.699219 0.296875 22.699219 0.0507812 L 22.699219 -5.15625 C 22.699219 -5.402344 22.453125 -5.601562 22.203125 -5.601562 Z M 1.984375 -0.445312 L 1.984375 -33.753906 L 6.246094 -33.753906 L 6.246094 -5.15625 C 6.246094 -4.90625 6.445312 -4.660156 6.691406 -4.660156 L 21.757812 -4.660156 L 21.757812 -0.445312 Z M 1.984375 -0.445312 "/></g></g></g></svg>